<svg width="34" height="34" viewBox="0 0 34 34" fill="none" xmlns="http://www.w3.org/2000/svg">
<path d="M17 34C26.3888 34 34 26.3888 34 17C34 7.61116 26.3888 0 17 0C7.61116 0 0 7.61116 0 17C0 26.3888 7.61116 34 17 34Z" fill="#009771"/>
<path fill-rule="evenodd" clip-rule="evenodd" d="M15.0207 7.00916C13.5385 7.33298 12.2251 8.82116 11.4653 11.0375L11.204 11.8L10.0349 12.1588C9.39187 12.3562 8.80376 12.5782 8.72806 12.6523C8.61098 12.7666 7.94631 17.2257 6.96037 24.511C6.90758 24.9008 6.92054 24.9364 7.13266 24.9824C7.54876 25.0729 19.1543 27.0819 19.1662 27.0656C19.2141 26.9997 19.9907 9.40409 19.9474 9.36392C19.9168 9.33564 19.7617 9.35452 19.6026 9.40597C19.3159 9.49866 19.3112 9.49482 19.0338 8.94477C18.5908 8.06649 17.9001 7.53912 17.193 7.53912C17.0308 7.53912 16.8381 7.45919 16.7307 7.34733C16.3529 6.95399 15.7861 6.84186 15.0207 7.00916ZM16.0148 7.71252C16.0148 7.75854 15.9327 7.82025 15.8326 7.84976C15.5123 7.94413 14.665 8.86126 14.3781 9.42413C14.2253 9.72387 14.0256 10.2252 13.9344 10.5383L13.7682 11.1074L13.0304 11.3094C12.6246 11.4206 12.2374 11.5305 12.1698 11.5539C12.0062 11.6105 12.4477 10.4668 12.9017 9.65802C13.5789 8.45176 14.6727 7.62883 15.5987 7.62883C15.8275 7.62883 16.0148 7.6665 16.0148 7.71252ZM17.9239 8.54828C18.0909 8.70867 18.3155 9.0215 18.4233 9.24349L18.6191 9.64719L18.3456 9.75447C18.1951 9.81343 17.9635 9.88698 17.8309 9.91785C17.5964 9.97243 17.5879 9.95757 17.5244 9.3819C17.4884 9.05622 17.4331 8.66983 17.4015 8.52326C17.3236 8.16148 17.5316 8.17144 17.9239 8.54828ZM16.68 8.745C16.7396 8.96415 16.7882 9.38485 16.7882 9.67985V10.2163L15.8305 10.4924C14.6758 10.8252 14.6292 10.8282 14.7124 10.5666C14.8445 10.1514 15.2383 9.41465 15.4953 9.10194C15.7376 8.80717 16.356 8.34645 16.5091 8.34645C16.5436 8.34645 16.6205 8.52577 16.68 8.745ZM20.2686 9.54975C20.2686 9.69103 20.0929 13.545 19.8782 18.1142C19.6634 22.6833 19.5002 26.5651 19.5156 26.7405L19.5436 27.0594L22.7283 26.4199C24.4798 26.0684 25.9283 25.738 25.947 25.686C25.9788 25.5977 23.689 11.0196 23.6096 10.8047C23.5887 10.7483 23.1675 10.6801 22.6218 10.6447L21.6705 10.5831L20.9696 9.93798C20.2957 9.31766 20.2686 9.30272 20.2686 9.54975ZM16.3726 13.911C16.6277 13.9619 16.8868 14.0326 16.9483 14.068C17.1087 14.1605 16.2759 16.3863 16.0965 16.3449C16.0249 16.3285 15.7068 16.2533 15.3896 16.1777C14.7037 16.0147 13.9514 16.0721 13.5992 16.3145C13.4654 16.4065 13.3165 16.6265 13.2681 16.8035C13.1541 17.2207 13.3162 17.455 14.1065 18.0155C15.1547 18.7587 15.5238 19.1193 15.8333 19.7027C16.0946 20.1953 16.1347 20.3653 16.1315 20.9695C16.1249 22.2061 15.5593 23.2017 14.5709 23.717C14.1246 23.9496 13.9193 23.9964 13.2079 24.028C11.9961 24.0818 11.0081 23.7844 10.1355 23.1031L9.84675 22.8776L10.127 22.0112C10.2812 21.5348 10.4074 21.1293 10.4074 21.1103C10.4074 21.0912 10.61 21.205 10.8575 21.3631C11.392 21.7041 12.1382 21.9813 12.5224 21.9813C13.1208 21.9813 13.5769 21.2952 13.3061 20.8022C13.2422 20.686 12.7653 20.2075 12.2461 19.7387C11.1022 18.706 10.9297 18.3524 11.0138 17.2132C11.134 15.5867 12.2844 14.357 14.0593 13.9579C14.7326 13.8065 15.7458 13.7859 16.3726 13.911Z" fill="white"/>
</svg>
