<svg width="34" height="34" viewBox="0 0 34 34" fill="none" xmlns="http://www.w3.org/2000/svg">
<path d="M17 34C26.3888 34 34 26.3888 34 17C34 7.61116 26.3888 0 17 0C7.61116 0 0 7.61116 0 17C0 26.3888 7.61116 34 17 34Z" fill="#282828"/>
<path d="M27.7465 11.4989C27.5014 10.5887 26.7838 9.87103 25.8735 9.62596C24.2107 9.1709 17.5592 9.1709 17.5592 9.1709C17.5592 9.1709 10.9076 9.1709 9.24477 9.60851C8.35203 9.85358 7.61686 10.5887 7.3718 11.4989C6.9342 13.1618 6.9342 16.6101 6.9342 16.6101C6.9342 16.6101 6.9342 20.076 7.3718 21.7213C7.61686 22.6315 8.33453 23.3492 9.24477 23.5942C10.9251 24.0493 17.5592 24.0493 17.5592 24.0493C17.5592 24.0493 24.2107 24.0493 25.8735 23.6118C26.7838 23.3667 27.5014 22.649 27.7465 21.7388C28.1841 20.076 28.1841 16.6276 28.1841 16.6276C28.1841 16.6276 28.2017 13.1618 27.7465 11.4989Z" fill="white"/>
<path d="M20.9728 16.6096L15.4416 13.4238V19.7953L20.9728 16.6096Z" fill="#191919"/>
</svg>
