<svg width="18" height="14" viewBox="0 0 18 14" fill="none" xmlns="http://www.w3.org/2000/svg">
<path d="M16.9411 8.51441C17.2148 8.07533 17.3333 7.56408 17.3333 7.04658V6.95375C17.3333 6.43625 17.2148 5.925 16.9411 5.48591C16.5424 4.84645 15.8398 3.83997 14.8333 2.8335C13.5777 1.57787 12.3221 0.795221 11.7791 0.485554C11.5972 0.381854 11.391 0.333496 11.1817 0.333496C10.1793 0.333496 9.49274 1.4058 9.81282 2.35568C10.0132 2.95016 10.2151 3.64257 10.3722 4.38659C10.4771 4.88314 10.0866 5.3335 9.57907 5.3335H1.49999C1.03976 5.3335 0.666656 5.70658 0.666656 6.16683V7.8335C0.666656 8.29375 1.03976 8.66683 1.49999 8.66683H9.57907C10.0866 8.66683 10.4771 9.11716 10.3722 9.61375C10.2151 10.3577 10.0132 11.0502 9.81282 11.6447C9.49274 12.5945 10.1793 13.6668 11.1817 13.6668C11.391 13.6668 11.5972 13.6185 11.7791 13.5147C12.3221 13.2051 13.5777 12.4225 14.8333 11.1668C15.8398 10.1603 16.5424 9.15391 16.9411 8.51441Z" fill="#6EE4B5"/>
</svg>
