<svg width="20" height="20" viewBox="0 0 20 20" fill="none" xmlns="http://www.w3.org/2000/svg">
<path fill-rule="evenodd" clip-rule="evenodd" d="M10 19.5005C15.2467 19.5005 19.5 15.2472 19.5 10.0005C19.5 4.75378 15.2467 0.500488 10 0.500488C4.7533 0.500488 0.5 4.75378 0.5 10.0005C0.5 15.2472 4.7533 19.5005 10 19.5005ZM6.45813 7.74405C6.45813 6.48203 7.48119 5.45897 8.7432 5.45897H9.4581V4.50064C9.4581 4.20149 9.7006 3.95898 9.9998 3.95898C10.2989 3.95898 10.5414 4.20149 10.5414 4.50064V5.45897H10.9998C12.4035 5.45897 13.5415 6.59691 13.5415 8.0006C13.5415 8.2998 13.2989 8.5423 12.9998 8.5423C12.7006 8.5423 12.4581 8.2998 12.4581 8.0006C12.4581 7.19522 11.8052 6.5423 10.9998 6.5423H10.5414V9.6102L11.979 10.0894C12.9121 10.4004 13.5415 11.2736 13.5415 12.2572C13.5415 13.5192 12.5184 14.5423 11.2564 14.5423H10.5414V15.5006C10.5414 15.7998 10.2989 16.0423 9.9998 16.0423C9.7006 16.0423 9.4581 15.7998 9.4581 15.5006V14.5423H8.9998C7.59607 14.5423 6.45813 13.4044 6.45813 12.0006C6.45813 11.7015 6.70064 11.459 6.99979 11.459C7.29895 11.459 7.54146 11.7015 7.54146 12.0006C7.54146 12.806 8.1944 13.459 8.9998 13.459H9.4581V10.391L8.0206 9.9119C7.08751 9.6008 6.45813 8.7276 6.45813 7.74405ZM9.4581 9.2491V6.5423H8.7432C8.0795 6.5423 7.54146 7.08034 7.54146 7.74405C7.54146 8.2613 7.87246 8.7206 8.3632 8.8841L9.4581 9.2491ZM10.5414 10.7522V13.459H11.2564C11.9201 13.459 12.4581 12.9209 12.4581 12.2572C12.4581 11.7399 12.1271 11.2807 11.6364 11.1171L10.5414 10.7522Z" fill="#191919"/>
</svg>
