<svg width="322" height="136" viewBox="0 0 322 136" fill="none" xmlns="http://www.w3.org/2000/svg">
<path fill-rule="evenodd" clip-rule="evenodd" d="M0 86.7893C0 80.3654 5.22044 75.1577 11.6602 75.1577H310.34C316.78 75.1577 322 80.3654 322 86.7893V124.368C322 130.792 316.78 136 310.34 136H11.6602C5.22045 136 0 130.792 0 124.368V86.7893Z" fill="white" fill-opacity="0.9"/>
<path d="M15.0788 122.802C17.1942 122.802 18.5803 121.701 18.5803 119.932V119.925C18.5803 118.562 17.7986 117.769 15.8212 117.33L14.7701 117.094C13.4825 116.813 12.9635 116.301 12.9635 115.547V115.541C12.9635 114.552 13.8767 113.994 15.0592 113.988C16.2942 113.982 17.0825 114.597 17.2139 115.429L17.227 115.514H18.4095L18.403 115.423C18.3044 114.014 16.9839 112.9 15.092 112.9C13.1344 112.9 11.7614 114.008 11.7548 115.573V115.581C11.7548 116.949 12.5759 117.822 14.4745 118.241L15.5256 118.471C16.8263 118.759 17.3716 119.296 17.3716 120.082V120.089C17.3716 121.052 16.4321 121.714 15.1446 121.714C13.7781 121.714 12.7927 121.118 12.7073 120.174L12.7008 120.102H11.5183L11.5248 120.174C11.6628 121.714 13.003 122.802 15.0788 122.802Z" fill="black"/>
<path d="M22.5629 122.703C23.6008 122.703 24.3169 122.277 24.6651 121.524H24.7702V122.579H25.9133V115.514H24.7702V119.695C24.7702 120.934 24.1067 121.694 22.8585 121.694C21.7286 121.694 21.2687 121.085 21.2687 119.813V115.514H20.1256V120.089C20.1256 121.759 20.9534 122.703 22.5629 122.703Z" fill="black"/>
<path d="M27.6688 122.579H33.1213V121.635H29.0352V121.53L33.1017 116.36V115.514H27.6753V116.458H31.7549V116.563L27.6688 121.753V122.579Z" fill="black"/>
<path d="M35.4747 114.152C35.9083 114.152 36.263 113.798 36.263 113.365C36.263 112.933 35.9083 112.579 35.4747 112.579C35.0411 112.579 34.6864 112.933 34.6864 113.365C34.6864 113.798 35.0411 114.152 35.4747 114.152ZM34.8966 122.579H36.0397V115.514H34.8966V122.579Z" fill="black"/>
<path d="M40.8697 122.703C42.5383 122.703 43.55 121.759 43.7931 120.803L43.8062 120.751H42.6631L42.6368 120.809C42.4463 121.236 41.8551 121.688 40.896 121.688C39.6346 121.688 38.8266 120.836 38.7937 119.374H43.8916V118.928C43.8916 116.819 42.7222 115.39 40.7974 115.39C38.8726 115.39 37.6244 116.884 37.6244 119.066V119.073C37.6244 121.288 38.8463 122.703 40.8697 122.703ZM40.7908 116.406C41.8353 116.406 42.6105 117.067 42.7288 118.463H38.8135C38.9383 117.12 39.7397 116.406 40.7908 116.406Z" fill="black"/>
<path d="M49.1764 122.579H50.3589V119.277L51.4953 118.025L54.918 122.579H56.4487L52.3099 117.205L56.1005 113.123H54.6158L50.4639 117.716H50.3589V113.123H49.1764V122.579Z" fill="black"/>
<path d="M59.4983 122.703C60.4509 122.703 61.1933 122.291 61.64 121.537H61.7451V122.579H62.8881V117.743C62.8881 116.275 61.9225 115.39 60.1947 115.39C58.6838 115.39 57.6064 116.137 57.4225 117.244L57.4159 117.284H58.559L58.5655 117.264C58.7495 116.714 59.3078 116.399 60.1553 116.399C61.213 116.399 61.7451 116.871 61.7451 117.743V118.384L59.7151 118.51C58.0663 118.608 57.1334 119.335 57.1334 120.593V120.606C57.1334 121.891 58.1517 122.703 59.4983 122.703ZM58.3027 120.58V120.567C58.3027 119.866 58.7758 119.486 59.8531 119.42L61.7451 119.302V119.945C61.7451 120.954 60.8977 121.714 59.7349 121.714C58.9137 121.714 58.3027 121.294 58.3027 120.58Z" fill="black"/>
<path d="M65.1035 125.057C66.3583 125.057 66.943 124.598 67.5276 123.011L70.2933 115.514H69.0911L67.1532 121.327H67.0481L65.1035 115.514H63.8817L66.5029 122.585L66.3715 123.005C66.1152 123.817 65.7211 124.113 65.0707 124.113C64.913 124.113 64.7356 124.106 64.5977 124.079V125.017C64.7554 125.043 64.9524 125.057 65.1035 125.057Z" fill="black"/>
<path d="M74.2168 122.703C75.8854 122.703 76.8971 121.759 77.1402 120.803L77.1533 120.751H76.0102L75.9839 120.809C75.7934 121.236 75.2022 121.688 74.2431 121.688C72.9817 121.688 72.1737 120.836 72.1408 119.374H77.2387V118.928C77.2387 116.819 76.0693 115.39 74.1445 115.39C72.2197 115.39 70.9715 116.884 70.9715 119.066V119.073C70.9715 121.288 72.1934 122.703 74.2168 122.703ZM74.1379 116.406C75.1824 116.406 75.9576 117.067 76.0759 118.463H72.1606C72.2854 117.12 73.0868 116.406 74.1379 116.406Z" fill="black"/>
<path d="M82.379 124.938H83.5221V121.465H83.6272C84.0147 122.218 84.8622 122.703 85.8344 122.703C87.6344 122.703 88.8037 121.268 88.8037 119.054V119.04C88.8037 116.838 87.6279 115.39 85.8344 115.39C84.8491 115.39 84.0608 115.855 83.6272 116.641H83.5221V115.514H82.379V124.938ZM85.5716 121.694C84.2841 121.694 83.4958 120.685 83.4958 119.054V119.04C83.4958 117.408 84.2841 116.399 85.5716 116.399C86.8658 116.399 87.6344 117.396 87.6344 119.04V119.054C87.6344 120.698 86.8658 121.694 85.5716 121.694Z" fill="black"/>
<path d="M92.3198 122.703C93.2724 122.703 94.015 122.291 94.4617 121.537H94.5666V122.579H95.7093V117.743C95.7093 116.275 94.7442 115.39 93.0158 115.39C91.5054 115.39 90.4282 116.137 90.2443 117.244L90.2371 117.284H91.3807L91.387 117.264C91.5709 116.714 92.1297 116.399 92.9773 116.399C94.0348 116.399 94.5666 116.871 94.5666 117.743V118.384L92.5369 118.51C90.8874 118.608 89.9546 119.335 89.9546 120.593V120.606C89.9546 121.891 90.9735 122.703 92.3198 122.703ZM91.1242 120.58V120.567C91.1242 119.866 91.5969 119.486 92.675 119.42L94.5666 119.302V119.945C94.5666 120.954 93.719 121.714 92.5566 121.714C91.735 121.714 91.1242 121.294 91.1242 120.58Z" fill="black"/>
<path d="M98.1876 114.152C98.6217 114.152 98.976 113.798 98.976 113.365C98.976 112.933 98.6217 112.579 98.1876 112.579C97.7544 112.579 97.3992 112.933 97.3992 113.365C97.3992 113.798 97.7544 114.152 98.1876 114.152ZM97.6099 122.579H98.7526V115.514H97.6099V122.579Z" fill="black"/>
<path d="M103.307 122.703C104.292 122.703 105.081 122.238 105.515 121.452H105.62V122.579H106.762V112.71H105.62V116.629H105.515C105.126 115.875 104.28 115.39 103.307 115.39C101.507 115.39 100.338 116.825 100.338 119.04V119.054C100.338 121.256 101.513 122.703 103.307 122.703ZM103.57 121.694C102.276 121.694 101.507 120.698 101.507 119.054V119.04C101.507 117.396 102.276 116.399 103.57 116.399C104.857 116.399 105.646 117.408 105.646 119.04V119.054C105.646 120.685 104.857 121.694 103.57 121.694Z" fill="black"/>
<path d="M112.928 125.057C114.183 125.057 114.767 124.598 115.351 123.011L118.117 115.514H116.915L114.977 121.327H114.872L112.928 115.514H111.705L114.327 122.585L114.195 123.005C113.94 123.817 113.545 124.113 112.895 124.113C112.737 124.113 112.559 124.106 112.422 124.079V125.017C112.579 125.043 112.776 125.057 112.928 125.057Z" fill="black"/>
<path d="M122.06 122.703C124.078 122.703 125.325 121.314 125.325 119.054V119.04C125.325 116.773 124.078 115.39 122.06 115.39C120.043 115.39 118.796 116.773 118.796 119.04V119.054C118.796 121.314 120.043 122.703 122.06 122.703ZM122.06 121.694C120.72 121.694 119.965 120.718 119.965 119.054V119.04C119.965 117.369 120.72 116.399 122.06 116.399C123.4 116.399 124.156 117.369 124.156 119.04V119.054C124.156 120.718 123.4 121.694 122.06 121.694Z" fill="black"/>
<path d="M129.256 122.703C130.293 122.703 131.009 122.277 131.357 121.524H131.463V122.579H132.606V115.514H131.463V119.695C131.463 120.934 130.799 121.694 129.551 121.694C128.421 121.694 127.961 121.085 127.961 119.813V115.514H126.818V120.089C126.818 121.759 127.646 122.703 129.256 122.703Z" fill="black"/>
<path d="M140.9 123.529H141.688V122.429C143.238 122.303 144.526 121.419 144.526 119.847V119.833C144.526 118.463 143.58 117.769 141.892 117.363L141.688 117.317V114.309C142.574 114.42 143.205 114.964 143.291 115.843V115.855L144.434 115.849V115.843C144.381 114.4 143.205 113.418 141.688 113.28V112.172H140.9V113.28C139.343 113.424 138.232 114.381 138.232 115.784V115.796C138.232 117.081 139.112 117.808 140.748 118.201L140.9 118.24V121.393C139.756 121.268 139.25 120.62 139.132 119.807V119.794L137.989 119.801V119.807C138.042 121.327 139.335 122.278 140.9 122.422V123.529ZM139.375 115.718V115.705C139.375 115.076 139.9 114.447 140.9 114.309V117.127C139.77 116.852 139.375 116.353 139.375 115.718ZM141.727 118.437C143.028 118.752 143.382 119.21 143.382 119.925V119.938C143.382 120.692 142.91 121.308 141.688 121.406V118.431L141.727 118.437Z" fill="black"/>
<path d="M149.586 122.736C151.484 122.736 152.876 121.57 152.876 119.99V119.977C152.876 118.634 151.937 117.775 150.558 117.658V117.631C151.74 117.382 152.568 116.582 152.568 115.416V115.403C152.568 113.968 151.379 112.965 149.572 112.965C147.799 112.965 146.576 113.994 146.426 115.534L146.419 115.6H147.556L147.562 115.534C147.661 114.577 148.455 113.988 149.572 113.988C150.728 113.988 151.379 114.557 151.379 115.547V115.56C151.379 116.504 150.591 117.199 149.461 117.199H148.324V118.195H149.513C150.84 118.195 151.675 118.843 151.675 120.004V120.016C151.675 121.019 150.827 121.714 149.586 121.714C148.325 121.714 147.463 121.071 147.372 120.141L147.365 120.075H146.228L146.236 120.154C146.36 121.648 147.628 122.736 149.586 122.736Z" fill="black"/>
<path d="M157.753 122.802C159.848 122.802 161.109 120.895 161.109 117.854V117.842C161.109 114.8 159.848 112.9 157.753 112.9C155.657 112.9 154.409 114.8 154.409 117.842V117.854C154.409 120.895 155.657 122.802 157.753 122.802ZM157.753 121.773C156.393 121.773 155.598 120.266 155.598 117.854V117.842C155.598 115.429 156.393 113.935 157.753 113.935C159.113 113.935 159.921 115.429 159.921 117.842V117.854C159.921 120.266 159.113 121.773 157.753 121.773Z" fill="black"/>
<path d="M166.012 122.802C168.107 122.802 169.369 120.895 169.369 117.854V117.842C169.369 114.8 168.107 112.9 166.012 112.9C163.916 112.9 162.668 114.8 162.668 117.842V117.854C162.668 120.895 163.916 122.802 166.012 122.802ZM166.012 121.773C164.652 121.773 163.858 120.266 163.858 117.854V117.842C163.858 115.429 164.652 113.935 166.012 113.935C167.372 113.935 168.18 115.429 168.18 117.842V117.854C168.18 120.266 167.372 121.773 166.012 121.773Z" fill="black"/>
<path d="M175.16 122.579H176.303V116.458H177.912V115.514H176.303V114.76C176.303 113.987 176.631 113.587 177.445 113.587C177.649 113.587 177.84 113.594 177.978 113.621V112.71C177.741 112.663 177.492 112.644 177.216 112.644C175.869 112.644 175.16 113.319 175.16 114.728V115.514H173.984V116.458H175.16V122.579Z" fill="black"/>
<path d="M181.954 122.703C183.971 122.703 185.219 121.314 185.219 119.054V119.04C185.219 116.773 183.971 115.39 181.954 115.39C179.937 115.39 178.688 116.773 178.688 119.04V119.054C178.688 121.314 179.937 122.703 181.954 122.703ZM181.954 121.694C180.613 121.694 179.858 120.718 179.858 119.054V119.04C179.858 117.369 180.613 116.399 181.954 116.399C183.294 116.399 184.049 117.369 184.049 119.04V119.054C184.049 120.718 183.294 121.694 181.954 121.694Z" fill="black"/>
<path d="M186.777 122.579H187.921V118.201C187.921 117.166 188.696 116.478 189.786 116.478C190.036 116.478 190.253 116.504 190.489 116.543V115.436C190.377 115.416 190.134 115.39 189.917 115.39C188.958 115.39 188.295 115.823 188.026 116.563H187.921V115.514H186.777V122.579Z" fill="black"/>
<path d="M197.14 113.123H196.293L195.261 116.852H196.569L197.14 113.123ZM199.322 113.123H198.474L197.443 116.852H198.749L199.322 113.123Z" fill="black"/>
<path d="M201.372 122.579H207.245V121.517H202.555V118.267H207.002V117.219H202.555V114.185H207.245V113.123H201.372V122.579Z" fill="black"/>
<path d="M211.642 122.703C212.628 122.703 213.415 122.238 213.849 121.452H213.954V122.579H215.097V112.71H213.954V116.629H213.849C213.462 115.875 212.614 115.39 211.642 115.39C209.842 115.39 208.672 116.825 208.672 119.04V119.054C208.672 121.256 209.848 122.703 211.642 122.703ZM211.905 121.694C210.61 121.694 209.842 120.698 209.842 119.054V119.04C209.842 117.396 210.61 116.399 211.905 116.399C213.192 116.399 213.98 117.408 213.98 119.04V119.054C213.98 120.685 213.192 121.694 211.905 121.694Z" fill="black"/>
<path d="M217.681 114.152C218.114 114.152 218.469 113.798 218.469 113.365C218.469 112.933 218.114 112.579 217.681 112.579C217.247 112.579 216.893 112.933 216.893 113.365C216.893 113.798 217.247 114.152 217.681 114.152ZM217.102 122.579H218.245V115.514H217.102V122.579Z" fill="black"/>
<path d="M222.701 122.632C222.924 122.632 223.142 122.605 223.365 122.565V121.596C223.154 121.615 223.043 121.622 222.839 121.622C222.103 121.622 221.814 121.288 221.814 120.456V116.458H223.365V115.514H221.814V113.686H220.632V115.514H219.515V116.458H220.632V120.744C220.632 122.094 221.243 122.632 222.701 122.632Z" fill="black"/>
<path d="M227.156 122.703C228.766 122.703 229.995 121.832 229.995 120.574V120.56C229.995 119.551 229.351 118.975 228.017 118.654L226.927 118.392C226.092 118.188 225.737 117.887 225.737 117.408V117.396C225.737 116.773 226.355 116.34 227.196 116.34C228.05 116.34 228.602 116.726 228.753 117.284H229.877C229.719 116.13 228.687 115.39 227.203 115.39C225.698 115.39 224.569 116.275 224.569 117.448V117.454C224.569 118.47 225.166 119.046 226.493 119.361L227.59 119.624C228.464 119.833 228.825 120.168 228.825 120.645V120.659C228.825 121.301 228.148 121.753 227.196 121.753C226.29 121.753 225.725 121.366 225.534 120.777H224.365C224.496 121.944 225.58 122.703 227.156 122.703Z" fill="black"/>
<path d="M238.032 122.756C239.372 122.756 240.397 122.35 241.132 121.655L241.974 122.579H243.458L241.803 120.817C242.335 119.918 242.591 118.772 242.591 117.481V117.31H241.487V117.474C241.487 118.404 241.323 119.257 240.995 119.951L238.669 117.474C240.173 116.675 240.719 115.967 240.719 115.037V115.023C240.719 113.791 239.701 112.9 238.302 112.9C236.915 112.9 235.883 113.804 235.883 115.011V115.023C235.883 115.672 236.193 116.249 237.079 117.231L236.731 117.402C235.45 118.031 234.826 118.903 234.826 120.05V120.063C234.826 121.642 236.146 122.756 238.032 122.756ZM237.014 115.088V115.076C237.014 114.348 237.553 113.837 238.308 113.837C239.076 113.837 239.608 114.335 239.608 115.062V115.076C239.608 115.711 239.227 116.19 238.039 116.805C237.283 115.987 237.014 115.581 237.014 115.088ZM236.009 119.984V119.971C236.009 119.191 236.508 118.53 237.414 118.097L237.73 117.946L240.39 120.849C239.851 121.42 239.102 121.76 238.137 121.76C236.869 121.76 236.009 121.039 236.009 119.984Z" fill="black"/>
<path d="M250.511 122.703C252.12 122.703 253.349 121.832 253.349 120.574V120.56C253.349 119.551 252.705 118.975 251.371 118.654L250.28 118.392C249.446 118.188 249.092 117.887 249.092 117.408V117.396C249.092 116.773 249.709 116.34 250.549 116.34C251.404 116.34 251.956 116.726 252.106 117.284H253.23C253.072 116.13 252.041 115.39 250.556 115.39C249.052 115.39 247.922 116.275 247.922 117.448V117.454C247.922 118.47 248.519 119.046 249.847 119.361L250.944 119.624C251.817 119.833 252.179 120.168 252.179 120.645V120.659C252.179 121.301 251.502 121.753 250.549 121.753C249.643 121.753 249.078 121.366 248.887 120.777H247.718C247.849 121.944 248.934 122.703 250.511 122.703Z" fill="black"/>
<path d="M257.357 122.632C257.58 122.632 257.797 122.605 258.021 122.565V121.596C257.81 121.615 257.699 121.622 257.495 121.622C256.76 121.622 256.47 121.288 256.47 120.456V116.458H258.021V115.514H256.47V113.686H255.288V115.514H254.171V116.458H255.288V120.744C255.288 122.094 255.898 122.632 257.357 122.632Z" fill="black"/>
<path d="M261.885 122.703C262.922 122.703 263.639 122.277 263.987 121.524H264.092V122.579H265.235V115.514H264.092V119.695C264.092 120.934 263.428 121.694 262.181 121.694C261.051 121.694 260.59 121.085 260.59 119.813V115.514H259.448V120.089C259.448 121.759 260.276 122.703 261.885 122.703Z" fill="black"/>
<path d="M267.825 122.579H268.968V116.458H270.578V115.514H268.968V114.76C268.968 113.987 269.297 113.587 270.111 113.587C270.315 113.587 270.505 113.594 270.643 113.621V112.71C270.406 112.663 270.157 112.644 269.881 112.644C268.535 112.644 267.825 113.319 267.825 114.728V115.514H266.649V116.458H267.825V122.579Z" fill="black"/>
<path d="M272.485 122.579H273.627V116.458H275.236V115.514H273.627V114.76C273.627 113.987 273.956 113.587 274.77 113.587C274.974 113.587 275.165 113.594 275.303 113.621V112.71C275.066 112.663 274.817 112.644 274.54 112.644C273.194 112.644 272.485 113.319 272.485 114.728V115.514H271.308V116.458H272.485V122.579Z" fill="black"/>
<path d="M276.926 116.852H277.774L278.805 113.123H277.499L276.926 116.852ZM279.108 116.852H279.955L280.987 113.123H279.679L279.108 116.852Z" fill="black"/>
<g style="mix-blend-mode:hard-light">
<path d="M232.623 97.0038C234.291 97.0038 235.482 95.8505 235.482 94.1979V94.1863C235.482 92.6017 234.371 91.4493 232.828 91.4493C232.082 91.4493 231.439 91.7499 231.074 92.3011H230.983L231.262 89.5292H235.026V88.6147H230.454L230.021 93.3229H230.909C231.012 93.1296 231.143 92.9712 231.285 92.8343C231.638 92.4997 232.105 92.3351 232.652 92.3351C233.716 92.3351 234.479 93.1126 234.479 94.2033V94.2149C234.479 95.3226 233.727 96.1001 232.635 96.1001C231.672 96.1001 230.961 95.4756 230.864 94.6918L230.858 94.6462H229.873L229.878 94.7088C229.999 96.0205 231.092 97.0038 232.623 97.0038Z" fill="black" fill-opacity="0.4"/>
</g>
<g style="mix-blend-mode:color-burn">
<path d="M232.623 97.0038C234.291 97.0038 235.482 95.8505 235.482 94.1979V94.1863C235.482 92.6017 234.371 91.4493 232.828 91.4493C232.082 91.4493 231.439 91.7499 231.074 92.3011H230.983L231.262 89.5292H235.026V88.6147H230.454L230.021 93.3229H230.909C231.012 93.1296 231.143 92.9712 231.285 92.8343C231.638 92.4997 232.105 92.3351 232.652 92.3351C233.716 92.3351 234.479 93.1126 234.479 94.2033V94.2149C234.479 95.3226 233.727 96.1001 232.635 96.1001C231.672 96.1001 230.961 95.4756 230.864 94.6918L230.858 94.6462H229.873L229.878 94.7088C229.999 96.0205 231.092 97.0038 232.623 97.0038Z" fill="#3F3F3F" fill-opacity="0.2"/>
</g>
<g style="mix-blend-mode:hard-light">
<path d="M242.392 96.9179C243.786 96.9179 244.851 96.1628 244.851 95.0721V95.0613C244.851 94.1863 244.293 93.6861 243.138 93.4079L242.192 93.1815C241.47 93.0052 241.162 92.744 241.162 92.3288V92.3181C241.162 91.7785 241.697 91.4036 242.426 91.4036C243.167 91.4036 243.645 91.7383 243.776 92.2214H244.749C244.612 91.222 243.718 90.5796 242.432 90.5796C241.128 90.5796 240.148 91.3464 240.148 92.3628V92.3691C240.148 93.2495 240.667 93.7487 241.817 94.0216L242.767 94.2489C243.524 94.4305 243.838 94.7204 243.838 95.1347V95.1463C243.838 95.7029 243.252 96.0948 242.426 96.0948C241.64 96.0948 241.151 95.7592 240.985 95.2483H239.973C240.086 96.2594 241.026 96.9179 242.392 96.9179Z" fill="black" fill-opacity="0.4"/>
</g>
<g style="mix-blend-mode:color-burn">
<path d="M242.392 96.9179C243.786 96.9179 244.851 96.1628 244.851 95.0721V95.0613C244.851 94.1863 244.293 93.6861 243.138 93.4079L242.192 93.1815C241.47 93.0052 241.162 92.744 241.162 92.3288V92.3181C241.162 91.7785 241.697 91.4036 242.426 91.4036C243.167 91.4036 243.645 91.7383 243.776 92.2214H244.749C244.612 91.222 243.718 90.5796 242.432 90.5796C241.128 90.5796 240.148 91.3464 240.148 92.3628V92.3691C240.148 93.2495 240.667 93.7487 241.817 94.0216L242.767 94.2489C243.524 94.4305 243.838 94.7204 243.838 95.1347V95.1463C243.838 95.7029 243.252 96.0948 242.426 96.0948C241.64 96.0948 241.151 95.7592 240.985 95.2483H239.973C240.086 96.2594 241.026 96.9179 242.392 96.9179Z" fill="#3F3F3F" fill-opacity="0.2"/>
</g>
<g style="mix-blend-mode:hard-light">
<path d="M248.822 96.9179C250.268 96.9179 251.145 96.1001 251.356 95.2707L251.367 95.226H250.376L250.354 95.277C250.189 95.6456 249.676 96.0375 248.845 96.0375C247.752 96.0375 247.051 95.2993 247.022 94.0333H251.441V93.6468C251.441 91.8179 250.427 90.5796 248.759 90.5796C247.091 90.5796 246.01 91.8752 246.01 93.7657V93.772C246.01 95.6912 247.068 96.9179 248.822 96.9179ZM248.754 91.46C249.659 91.46 250.33 92.0335 250.433 93.2432H247.04C247.148 92.0792 247.843 91.46 248.754 91.46Z" fill="black" fill-opacity="0.4"/>
</g>
<g style="mix-blend-mode:color-burn">
<path d="M248.822 96.9179C250.268 96.9179 251.145 96.1001 251.356 95.2707L251.367 95.226H250.376L250.354 95.277C250.189 95.6456 249.676 96.0375 248.845 96.0375C247.752 96.0375 247.051 95.2993 247.022 94.0333H251.441V93.6468C251.441 91.8179 250.427 90.5796 248.759 90.5796C247.091 90.5796 246.01 91.8752 246.01 93.7657V93.772C246.01 95.6912 247.068 96.9179 248.822 96.9179ZM248.754 91.46C249.659 91.46 250.33 92.0335 250.433 93.2432H247.04C247.148 92.0792 247.843 91.46 248.754 91.46Z" fill="#3F3F3F" fill-opacity="0.2"/>
</g>
<g style="mix-blend-mode:hard-light">
<path d="M255.417 96.9179C256.891 96.9179 257.717 96.1287 257.968 95.0211L257.979 94.9584L257 94.9647L256.988 94.9987C256.76 95.6805 256.237 96.0438 255.411 96.0438C254.318 96.0438 253.612 95.1401 253.612 93.7318V93.721C253.612 92.3404 254.307 91.4546 255.411 91.4546C256.294 91.4546 256.84 91.9432 256.995 92.5453L257 92.5623H257.985L257.979 92.5283C257.797 91.4376 256.903 90.5796 255.411 90.5796C253.692 90.5796 252.599 91.8179 252.599 93.721V93.7318C252.599 95.6742 253.697 96.9179 255.417 96.9179Z" fill="black" fill-opacity="0.4"/>
</g>
<g style="mix-blend-mode:color-burn">
<path d="M255.417 96.9179C256.891 96.9179 257.717 96.1287 257.968 95.0211L257.979 94.9584L257 94.9647L256.988 94.9987C256.76 95.6805 256.237 96.0438 255.411 96.0438C254.318 96.0438 253.612 95.1401 253.612 93.7318V93.721C253.612 92.3404 254.307 91.4546 255.411 91.4546C256.294 91.4546 256.84 91.9432 256.995 92.5453L257 92.5623H257.985L257.979 92.5283C257.797 91.4376 256.903 90.5796 255.411 90.5796C253.692 90.5796 252.599 91.8179 252.599 93.721V93.7318C252.599 95.6742 253.697 96.9179 255.417 96.9179Z" fill="#3F3F3F" fill-opacity="0.2"/>
</g>
<g style="mix-blend-mode:hard-light">
<path d="M261.882 96.9179C263.629 96.9179 264.711 95.7145 264.711 93.755V93.7434C264.711 91.7785 263.629 90.5796 261.882 90.5796C260.134 90.5796 259.052 91.7785 259.052 93.7434V93.755C259.052 95.7145 260.134 96.9179 261.882 96.9179ZM261.882 96.0438C260.72 96.0438 260.066 95.1973 260.066 93.755V93.7434C260.066 92.2948 260.72 91.4546 261.882 91.4546C263.043 91.4546 263.697 92.2948 263.697 93.7434V93.755C263.697 95.1973 263.043 96.0438 261.882 96.0438Z" fill="black" fill-opacity="0.4"/>
</g>
<g style="mix-blend-mode:color-burn">
<path d="M261.882 96.9179C263.629 96.9179 264.711 95.7145 264.711 93.755V93.7434C264.711 91.7785 263.629 90.5796 261.882 90.5796C260.134 90.5796 259.052 91.7785 259.052 93.7434V93.755C259.052 95.7145 260.134 96.9179 261.882 96.9179ZM261.882 96.0438C260.72 96.0438 260.066 95.1973 260.066 93.755V93.7434C260.066 92.2948 260.72 91.4546 261.882 91.4546C263.043 91.4546 263.697 92.2948 263.697 93.7434V93.755C263.697 95.1973 263.043 96.0438 261.882 96.0438Z" fill="#3F3F3F" fill-opacity="0.2"/>
</g>
<g style="mix-blend-mode:hard-light">
<path d="M266.177 96.8105H267.168V93.1869C267.168 92.1132 267.788 91.4546 268.767 91.4546C269.746 91.4546 270.202 91.9825 270.202 93.0849V96.8105H271.192V92.846C271.192 91.392 270.424 90.5796 269.046 90.5796C268.141 90.5796 267.566 90.9607 267.258 91.6076H267.168V90.6879H266.177V96.8105Z" fill="black" fill-opacity="0.4"/>
</g>
<g style="mix-blend-mode:color-burn">
<path d="M266.177 96.8105H267.168V93.1869C267.168 92.1132 267.788 91.4546 268.767 91.4546C269.746 91.4546 270.202 91.9825 270.202 93.0849V96.8105H271.192V92.846C271.192 91.392 270.424 90.5796 269.046 90.5796C268.141 90.5796 267.566 90.9607 267.258 91.6076H267.168V90.6879H266.177V96.8105Z" fill="#3F3F3F" fill-opacity="0.2"/>
</g>
<g style="mix-blend-mode:hard-light">
<path d="M275.18 96.9178C276.034 96.9178 276.717 96.5152 277.093 95.8334H277.185V96.8104H278.175V88.2568H277.185V91.6532H277.093C276.758 91 276.023 90.5795 275.18 90.5795C273.62 90.5795 272.607 91.8232 272.607 93.7433V93.7549C272.607 95.6625 273.626 96.9178 275.18 96.9178ZM275.408 96.0436C274.287 96.0436 273.62 95.1802 273.62 93.7549V93.7433C273.62 92.318 274.287 91.4545 275.408 91.4545C276.524 91.4545 277.207 92.3287 277.207 93.7433V93.7549C277.207 95.1686 276.524 96.0436 275.408 96.0436Z" fill="black" fill-opacity="0.4"/>
</g>
<g style="mix-blend-mode:color-burn">
<path d="M275.18 96.9178C276.034 96.9178 276.717 96.5152 277.093 95.8334H277.185V96.8104H278.175V88.2568H277.185V91.6532H277.093C276.758 91 276.023 90.5795 275.18 90.5795C273.62 90.5795 272.607 91.8232 272.607 93.7433V93.7549C272.607 95.6625 273.626 96.9178 275.18 96.9178ZM275.408 96.0436C274.287 96.0436 273.62 95.1802 273.62 93.7549V93.7433C273.62 92.318 274.287 91.4545 275.408 91.4545C276.524 91.4545 277.207 92.3287 277.207 93.7433V93.7549C277.207 95.1686 276.524 96.0436 275.408 96.0436Z" fill="#3F3F3F" fill-opacity="0.2"/>
</g>
<g style="mix-blend-mode:hard-light">
<path d="M282.111 96.9179C283.506 96.9179 284.571 96.1628 284.571 95.0721V95.0613C284.571 94.1863 284.013 93.6861 282.858 93.4079L281.912 93.1815C281.189 93.0052 280.882 92.744 280.882 92.3288V92.3181C280.882 91.7785 281.417 91.4036 282.146 91.4036C282.886 91.4036 283.364 91.7383 283.495 92.2214H284.469C284.332 91.222 283.438 90.5796 282.151 90.5796C280.848 90.5796 279.868 91.3464 279.868 92.3628V92.3691C279.868 93.2495 280.387 93.7487 281.537 94.0216L282.487 94.2489C283.244 94.4305 283.557 94.7204 283.557 95.1347V95.1463C283.557 95.7029 282.971 96.0948 282.146 96.0948C281.36 96.0948 280.87 95.7592 280.705 95.2483H279.692C279.805 96.2594 280.745 96.9179 282.111 96.9179Z" fill="black" fill-opacity="0.4"/>
</g>
<g style="mix-blend-mode:color-burn">
<path d="M282.111 96.9179C283.506 96.9179 284.571 96.1628 284.571 95.0721V95.0613C284.571 94.1863 284.013 93.6861 282.858 93.4079L281.912 93.1815C281.189 93.0052 280.882 92.744 280.882 92.3288V92.3181C280.882 91.7785 281.417 91.4036 282.146 91.4036C282.886 91.4036 283.364 91.7383 283.495 92.2214H284.469C284.332 91.222 283.438 90.5796 282.151 90.5796C280.848 90.5796 279.868 91.3464 279.868 92.3628V92.3691C279.868 93.2495 280.387 93.7487 281.537 94.0216L282.487 94.2489C283.244 94.4305 283.557 94.7204 283.557 95.1347V95.1463C283.557 95.7029 282.971 96.0948 282.146 96.0948C281.36 96.0948 280.87 95.7592 280.705 95.2483H279.692C279.805 96.2594 280.745 96.9179 282.111 96.9179Z" fill="#3F3F3F" fill-opacity="0.2"/>
</g>
<g style="mix-blend-mode:hard-light">
<path d="M290.941 96.9179C291.766 96.9179 292.41 96.56 292.797 95.9069H292.888V96.8105H293.878V92.6187C293.878 91.3464 293.042 90.5796 291.545 90.5796C290.235 90.5796 289.301 91.2274 289.142 92.1874L289.136 92.2214H290.126L290.133 92.2044C290.292 91.7275 290.776 91.4546 291.51 91.4546C292.427 91.4546 292.888 91.8635 292.888 92.6187V93.1752L291.128 93.2835C289.7 93.3685 288.891 93.9993 288.891 95.0891V95.1007C288.891 96.2138 289.774 96.9179 290.941 96.9179ZM289.905 95.0783V95.0667C289.905 94.4592 290.315 94.1299 291.249 94.0726L292.888 93.9706V94.5272C292.888 95.4013 292.154 96.0607 291.145 96.0607C290.434 96.0607 289.905 95.6975 289.905 95.0783Z" fill="black" fill-opacity="0.4"/>
</g>
<g style="mix-blend-mode:color-burn">
<path d="M290.941 96.9179C291.766 96.9179 292.41 96.56 292.797 95.9069H292.888V96.8105H293.878V92.6187C293.878 91.3464 293.042 90.5796 291.545 90.5796C290.235 90.5796 289.301 91.2274 289.142 92.1874L289.136 92.2214H290.126L290.133 92.2044C290.292 91.7275 290.776 91.4546 291.51 91.4546C292.427 91.4546 292.888 91.8635 292.888 92.6187V93.1752L291.128 93.2835C289.7 93.3685 288.891 93.9993 288.891 95.0891V95.1007C288.891 96.2138 289.774 96.9179 290.941 96.9179ZM289.905 95.0783V95.0667C289.905 94.4592 290.315 94.1299 291.249 94.0726L292.888 93.9706V94.5272C292.888 95.4013 292.154 96.0607 291.145 96.0607C290.434 96.0607 289.905 95.6975 289.905 95.0783Z" fill="#3F3F3F" fill-opacity="0.2"/>
</g>
<g style="mix-blend-mode:hard-light">
<path d="M298.145 98.9687C299.819 98.9687 300.878 98.0936 300.878 96.7246V90.6879H299.888V91.6989H299.819C299.443 91.0055 298.771 90.5796 297.907 90.5796C296.301 90.5796 295.31 91.8233 295.31 93.5385V93.5501C295.31 95.2653 296.295 96.492 297.883 96.492C298.726 96.492 299.421 96.1118 299.808 95.4362H299.899V96.6736C299.899 97.5773 299.244 98.0936 298.145 98.0936C297.262 98.0936 296.716 97.7643 296.608 97.2991L296.602 97.2928H295.577L295.566 97.2991C295.72 98.3039 296.665 98.9687 298.145 98.9687ZM298.099 95.6179C296.961 95.6179 296.323 94.7661 296.323 93.5501V93.5385C296.323 92.3234 296.961 91.4546 298.099 91.4546C299.233 91.4546 299.922 92.3234 299.922 93.5385V93.5501C299.922 94.7661 299.238 95.6179 298.099 95.6179Z" fill="black" fill-opacity="0.4"/>
</g>
<g style="mix-blend-mode:color-burn">
<path d="M298.145 98.9687C299.819 98.9687 300.878 98.0936 300.878 96.7246V90.6879H299.888V91.6989H299.819C299.443 91.0055 298.771 90.5796 297.907 90.5796C296.301 90.5796 295.31 91.8233 295.31 93.5385V93.5501C295.31 95.2653 296.295 96.492 297.883 96.492C298.726 96.492 299.421 96.1118 299.808 95.4362H299.899V96.6736C299.899 97.5773 299.244 98.0936 298.145 98.0936C297.262 98.0936 296.716 97.7643 296.608 97.2991L296.602 97.2928H295.577L295.566 97.2991C295.72 98.3039 296.665 98.9687 298.145 98.9687ZM298.099 95.6179C296.961 95.6179 296.323 94.7661 296.323 93.5501V93.5385C296.323 92.3234 296.961 91.4546 298.099 91.4546C299.233 91.4546 299.922 92.3234 299.922 93.5385V93.5501C299.922 94.7661 299.238 95.6179 298.099 95.6179Z" fill="#3F3F3F" fill-opacity="0.2"/>
</g>
<g style="mix-blend-mode:hard-light">
<path d="M305.173 96.9179C306.921 96.9179 308.002 95.7145 308.002 93.755V93.7434C308.002 91.7785 306.921 90.5796 305.173 90.5796C303.425 90.5796 302.344 91.7785 302.344 93.7434V93.755C302.344 95.7145 303.425 96.9179 305.173 96.9179ZM305.173 96.0438C304.012 96.0438 303.357 95.1973 303.357 93.755V93.7434C303.357 92.2948 304.012 91.4546 305.173 91.4546C306.335 91.4546 306.99 92.2948 306.99 93.7434V93.755C306.99 95.1973 306.335 96.0438 305.173 96.0438Z" fill="black" fill-opacity="0.4"/>
</g>
<g style="mix-blend-mode:color-burn">
<path d="M305.173 96.9179C306.921 96.9179 308.002 95.7145 308.002 93.755V93.7434C308.002 91.7785 306.921 90.5796 305.173 90.5796C303.425 90.5796 302.344 91.7785 302.344 93.7434V93.755C302.344 95.7145 303.425 96.9179 305.173 96.9179ZM305.173 96.0438C304.012 96.0438 303.357 95.1973 303.357 93.755V93.7434C303.357 92.2948 304.012 91.4546 305.173 91.4546C306.335 91.4546 306.99 92.2948 306.99 93.7434V93.755C306.99 95.1973 306.335 96.0438 305.173 96.0438Z" fill="#3F3F3F" fill-opacity="0.2"/>
</g>
<path d="M8.96936 89.7244C8.96936 87.8212 8.96936 86.8697 9.32293 86.1352C9.67597 85.4019 10.2689 84.8103 11.0041 84.4582C11.7404 84.1055 12.6942 84.1055 14.6021 84.1055H21.2753C23.1832 84.1055 24.1371 84.1055 24.8734 84.4582C25.6085 84.8103 26.2015 85.4019 26.5545 86.1352C26.9081 86.8697 26.9081 87.8212 26.9081 89.7244V96.3813C26.9081 98.2844 26.9081 99.2364 26.5545 99.97C26.2015 100.704 25.6085 101.295 24.8734 101.648C24.1371 102 23.1832 102 21.2753 102H14.6021C12.6942 102 11.7404 102 11.0041 101.648C10.2689 101.295 9.67597 100.704 9.32293 99.97C8.96936 99.2364 8.96936 98.2844 8.96936 96.3813V89.7244Z" fill="#7352FF"/>
<path d="M12.8935 94.8428C12.998 96.9338 14.7322 98.0791 17.7846 98.0854C19.634 98.0898 21.0813 97.6657 21.9687 96.8605C22.5414 96.3415 22.8453 95.657 22.8453 94.884C22.8453 93.4462 22.0113 92.4628 20.2878 92.0352L12.8935 94.8428Z" fill="white"/>
<path d="M21.4993 88.21C21.8076 88.5798 22.0891 89.0037 22.3493 89.4918C22.5606 89.8854 22.7493 90.3024 22.9252 90.7256L22.9839 90.7032C22.9285 89.5982 22.4176 88.7583 21.4993 88.21Z" fill="white"/>
<path d="M21.7777 89.7288C21.9835 90.1189 22.168 90.5305 22.3386 90.9474L22.6234 90.8391C22.4485 90.4115 22.2597 89.9891 22.0475 89.5874C21.6966 88.9248 21.3073 88.368 20.8668 87.9026C20.661 87.8218 20.4402 87.7528 20.2055 87.6943C20.8124 88.2097 21.3276 88.8769 21.7777 89.7288Z" fill="white"/>
<path d="M19.5631 87.9049C20.2201 88.4382 20.7704 89.1416 21.2472 90.0546C21.4338 90.4125 21.6013 90.7865 21.7581 91.1685L22.0257 91.0665C21.8658 90.6755 21.694 90.2917 21.501 89.9221C21.0062 88.9748 20.4312 88.2427 19.7434 87.6839C19.6964 87.6456 19.6495 87.6084 19.6015 87.5723C19.4095 87.5415 19.21 87.5181 19.002 87.5C19.2026 87.6286 19.3893 87.7635 19.5631 87.9049Z" fill="white"/>
<path d="M17.7259 87.4657C18.2314 87.7303 18.6836 88.0267 19.091 88.3604C19.7427 88.8937 20.2877 89.5989 20.7559 90.5169C20.9009 90.8014 21.0343 91.0949 21.1591 91.3955L21.4171 91.298C20.9201 90.1044 20.2888 88.9841 19.2659 88.1468C18.9641 87.9003 18.6389 87.6719 18.2858 87.4626C18.2218 87.4615 18.1578 87.4604 18.0917 87.4604C17.969 87.4604 17.8464 87.4615 17.7259 87.4657Z" fill="white"/>
<path d="M18.8506 88.6971C18.2448 88.2063 17.5494 87.8333 16.8167 87.5337C16.6364 87.5561 16.4615 87.5826 16.292 87.6145C16.2931 87.6145 16.2941 87.6156 16.2952 87.6156C17.2764 87.9768 18.0571 88.3976 18.681 88.9033C19.3434 89.4398 19.898 90.1472 20.3768 91.0652C20.4665 91.2379 20.5528 91.4151 20.6349 91.5931L20.8856 91.4983C20.7992 91.3086 20.7096 91.1243 20.6147 90.9408C20.1187 89.9915 19.5417 89.2571 18.8506 88.6971Z" fill="white"/>
<path d="M18.49 89.3356C17.6303 88.6386 16.5776 88.1732 15.5015 87.812C15.365 87.8556 15.2338 87.9034 15.1069 87.9544C16.2683 88.3231 17.416 88.7969 18.3267 89.5343C18.987 90.0702 19.5426 90.7717 20.0268 91.6817C20.0481 91.721 20.0684 91.7613 20.0887 91.8016L20.3318 91.7094C20.3063 91.6593 20.2807 91.6101 20.255 91.5618C19.7537 90.6214 19.1767 89.8922 18.49 89.3356Z" fill="white"/>
<path d="M17.8243 90.7878C16.6884 89.8591 15.1846 89.2985 13.7533 88.8374C13.6935 88.9011 13.637 88.9659 13.5836 89.0339C15.0224 89.494 16.5444 90.0497 17.6717 90.9731C18.1143 91.3345 18.4844 91.7882 18.8065 92.2883L19.0359 92.2015C18.6966 91.6656 18.301 91.1779 17.8243 90.7878Z" fill="white"/>
<path d="M18.1524 90.0372C17.1179 89.1954 15.7889 88.6769 14.4814 88.2646C14.3875 88.321 14.2979 88.3794 14.2126 88.4411C15.5596 88.8565 16.9429 89.3739 17.9945 90.2296C18.5876 90.7118 19.0504 91.3516 19.4376 92.0495L19.6733 91.96C19.2691 91.2254 18.7827 90.5499 18.1524 90.0372Z" fill="white"/>
<path d="M17.4906 91.5783C16.3206 90.6156 14.7528 90.0179 13.2852 89.5142C13.2521 89.5839 13.2223 89.6546 13.1956 89.7271C14.6483 90.2255 16.2001 90.8142 17.3434 91.7555C17.625 91.9872 17.8788 92.2583 18.1092 92.5545L18.3343 92.4695C18.0825 92.1393 17.8042 91.836 17.4906 91.5783Z" fill="white"/>
<path d="M17.1332 92.3921C15.9803 91.4571 14.4754 90.8317 13.0547 90.2993C13.0451 90.3745 13.0388 90.4496 13.0345 90.5275C13.6104 90.7431 14.1906 90.9722 14.7527 91.2298C15.6721 91.6504 16.4048 92.0861 16.9924 92.563C17.1044 92.6534 17.2121 92.7518 17.3155 92.8547L17.5416 92.7688C17.4126 92.6346 17.2771 92.5084 17.1332 92.3921Z" fill="white"/>
<path d="M13.0756 91.2104C13.0906 91.2963 13.1087 91.3804 13.1301 91.4619C13.5449 91.6354 13.9587 91.8162 14.363 92.0112C15.166 92.4004 15.8241 92.7941 16.367 93.2147L16.5984 93.1261C16.0247 92.6671 15.3228 92.2403 14.4557 91.8207C14.0035 91.6023 13.5396 91.4019 13.0756 91.2104Z" fill="white"/>
<path d="M14.2724 92.9764C14.3908 93.04 14.5071 93.1035 14.6222 93.1706C14.891 93.3003 15.1939 93.4095 15.5309 93.4963C14.9369 93.0928 14.2905 92.742 13.624 92.4199C13.801 92.6284 14.0164 92.8145 14.2724 92.9764Z" fill="white"/>
<path d="M36.9268 96.8241C38.7601 96.8241 39.9614 95.8703 39.9614 94.3367V94.3314C39.9614 93.1494 39.2839 92.4623 37.5701 92.082L36.6592 91.878C35.5432 91.6337 35.0935 91.1899 35.0935 90.5368V90.5314C35.0935 89.6743 35.8849 89.1912 36.9097 89.1855C37.98 89.1798 38.6633 89.7136 38.7771 90.4348L38.7885 90.509H39.8134L39.8076 90.4294C39.7222 89.2082 38.5778 88.2427 36.9381 88.2427C35.2415 88.2427 34.0516 89.2025 34.0459 90.56V90.5654C34.0459 91.7527 34.7576 92.5079 36.4029 92.8711L37.314 93.0707C38.4412 93.3203 38.9138 93.7856 38.9138 94.4674V94.4727C38.9138 95.3084 38.0996 95.8819 36.9837 95.8819C35.7995 95.8819 34.9454 95.3648 34.8714 94.547L34.8658 94.4844H33.8409L33.8466 94.547C33.9662 95.8819 35.1277 96.8241 36.9268 96.8241Z" fill="black"/>
<g style="mix-blend-mode:hard-light">
<path d="M36.9268 96.8241C38.7601 96.8241 39.9614 95.8703 39.9614 94.3367V94.3314C39.9614 93.1494 39.2839 92.4623 37.5701 92.082L36.6592 91.878C35.5432 91.6337 35.0935 91.1899 35.0935 90.5368V90.5314C35.0935 89.6743 35.8849 89.1912 36.9097 89.1855C37.98 89.1798 38.6633 89.7136 38.7771 90.4348L38.7885 90.509H39.8134L39.8076 90.4294C39.7222 89.2082 38.5778 88.2427 36.9381 88.2427C35.2415 88.2427 34.0516 89.2025 34.0459 90.56V90.5654C34.0459 91.7527 34.7576 92.5079 36.4029 92.8711L37.314 93.0707C38.4412 93.3203 38.9138 93.7856 38.9138 94.4674V94.4727C38.9138 95.3084 38.0996 95.8819 36.9837 95.8819C35.7995 95.8819 34.9454 95.3648 34.8714 94.547L34.8658 94.4844H33.8409L33.8466 94.547C33.9662 95.8819 35.1277 96.8241 36.9268 96.8241Z" fill="black" fill-opacity="0.4"/>
</g>
<g style="mix-blend-mode:color-burn">
<path d="M36.9268 96.8241C38.7601 96.8241 39.9614 95.8703 39.9614 94.3367V94.3314C39.9614 93.1494 39.2839 92.4623 37.5701 92.082L36.6592 91.878C35.5432 91.6337 35.0935 91.1899 35.0935 90.5368V90.5314C35.0935 89.6743 35.8849 89.1912 36.9097 89.1855C37.98 89.1798 38.6633 89.7136 38.7771 90.4348L38.7885 90.509H39.8134L39.8076 90.4294C39.7222 89.2082 38.5778 88.2427 36.9381 88.2427C35.2415 88.2427 34.0516 89.2025 34.0459 90.56V90.5654C34.0459 91.7527 34.7576 92.5079 36.4029 92.8711L37.314 93.0707C38.4412 93.3203 38.9138 93.7856 38.9138 94.4674V94.4727C38.9138 95.3084 38.0996 95.8819 36.9837 95.8819C35.7995 95.8819 34.9454 95.3648 34.8714 94.547L34.8658 94.4844H33.8409L33.8466 94.547C33.9662 95.8819 35.1277 96.8241 36.9268 96.8241Z" fill="#3F3F3F" fill-opacity="0.2"/>
</g>
<path d="M43.7327 96.6315H44.7576V89.3557H47.405V88.4355H41.0852V89.3557H43.7327V96.6315Z" fill="black"/>
<g style="mix-blend-mode:hard-light">
<path d="M43.7327 96.6315H44.7576V89.3557H47.405V88.4355H41.0852V89.3557H43.7327V96.6315Z" fill="black" fill-opacity="0.4"/>
</g>
<g style="mix-blend-mode:color-burn">
<path d="M43.7327 96.6315H44.7576V89.3557H47.405V88.4355H41.0852V89.3557H43.7327V96.6315Z" fill="#3F3F3F" fill-opacity="0.2"/>
</g>
<path d="M48.916 96.6315H49.9409V88.4355H48.916V96.6315Z" fill="black"/>
<g style="mix-blend-mode:hard-light">
<path d="M48.916 96.6315H49.9409V88.4355H48.916V96.6315Z" fill="black" fill-opacity="0.4"/>
</g>
<g style="mix-blend-mode:color-burn">
<path d="M48.916 96.6315H49.9409V88.4355H48.916V96.6315Z" fill="#3F3F3F" fill-opacity="0.2"/>
</g>
<path d="M51.9642 96.6315H52.9891V93.3881H55.0102L56.7695 96.6315H57.9708L56.0692 93.2288C57.0997 92.9049 57.7203 92.0191 57.7203 90.8837V90.8721C57.7203 89.4011 56.6841 88.4355 55.1014 88.4355H51.9642V96.6315ZM52.9891 92.479V89.3443H54.9647C56.0237 89.3443 56.6613 89.929 56.6613 90.9061V90.9177C56.6613 91.9171 56.0635 92.479 55.0102 92.479H52.9891Z" fill="black"/>
<g style="mix-blend-mode:hard-light">
<path d="M51.9642 96.6315H52.9891V93.3881H55.0102L56.7695 96.6315H57.9708L56.0692 93.2288C57.0997 92.9049 57.7203 92.0191 57.7203 90.8837V90.8721C57.7203 89.4011 56.6841 88.4355 55.1014 88.4355H51.9642V96.6315ZM52.9891 92.479V89.3443H54.9647C56.0237 89.3443 56.6613 89.929 56.6613 90.9061V90.9177C56.6613 91.9171 56.0635 92.479 55.0102 92.479H52.9891Z" fill="black" fill-opacity="0.4"/>
</g>
<g style="mix-blend-mode:color-burn">
<path d="M51.9642 96.6315H52.9891V93.3881H55.0102L56.7695 96.6315H57.9708L56.0692 93.2288C57.0997 92.9049 57.7203 92.0191 57.7203 90.8837V90.8721C57.7203 89.4011 56.6841 88.4355 55.1014 88.4355H51.9642V96.6315ZM52.9891 92.479V89.3443H54.9647C56.0237 89.3443 56.6613 89.929 56.6613 90.9061V90.9177C56.6613 91.9171 56.0635 92.479 55.0102 92.479H52.9891Z" fill="#3F3F3F" fill-opacity="0.2"/>
</g>
<path fill-rule="evenodd" clip-rule="evenodd" d="M0 11.6316C0 5.20764 5.22044 0 11.6602 0H310.34C316.78 0 322 5.20764 322 11.6316V49.2105C322 55.6345 316.78 60.8421 310.34 60.8421H11.6602C5.22045 60.8421 0 55.6345 0 49.2105V11.6316Z" fill="white" fill-opacity="0.9"/>
<path d="M14.6194 48.3709H15.4077V47.27C16.9581 47.1454 18.2457 46.2607 18.2457 44.688V44.6749C18.2457 43.3052 17.2997 42.6106 15.6114 42.2043L15.4077 42.1585V39.1504C16.2946 39.2619 16.9253 39.8058 17.0107 40.6839V40.6971L18.1537 40.6905V40.6839C18.1012 39.2422 16.9253 38.2593 15.4077 38.1216V37.0142H14.6194V38.1216C13.0625 38.2658 11.9523 39.2226 11.9523 40.625V40.638C11.9523 41.9225 12.8326 42.6499 14.4684 43.0431L14.6194 43.0824V46.2345C13.4764 46.1101 12.9705 45.4613 12.8523 44.6487V44.6355L11.7092 44.6421V44.6487C11.7618 46.169 13.056 47.1192 14.6194 47.2634V48.3709ZM13.0954 40.5595V40.5463C13.0954 39.9172 13.6209 39.2881 14.6194 39.1504V41.9684C13.4896 41.6931 13.0954 41.1951 13.0954 40.5595ZM15.4472 43.279C16.7479 43.5936 17.1027 44.0523 17.1027 44.7666V44.7798C17.1027 45.5333 16.6296 46.1493 15.4077 46.2477V43.2725L15.4472 43.279Z" fill="black"/>
<path d="M23.3056 47.578C25.2042 47.578 26.5969 46.4115 26.5969 44.8322V44.8191C26.5969 43.4756 25.6575 42.6172 24.2779 42.4992V42.473C25.4604 42.224 26.2881 41.4245 26.2881 40.258V40.2449C26.2881 38.8098 25.0991 37.8071 23.2925 37.8071C21.5188 37.8071 20.2969 38.836 20.1458 40.376L20.1393 40.4415H21.2757L21.2823 40.376C21.3808 39.4192 22.1758 38.8295 23.2925 38.8295C24.4487 38.8295 25.0991 39.3996 25.0991 40.3891V40.4022C25.0991 41.3459 24.3107 42.0405 23.1809 42.0405H22.0444V43.0366H23.2334C24.5604 43.0366 25.3947 43.6854 25.3947 44.8453V44.8584C25.3947 45.861 24.5473 46.5557 23.3056 46.5557C22.0444 46.5557 21.1838 45.9134 21.0918 44.9829L21.0852 44.9174H19.9488L19.9553 44.9961C20.0801 46.4902 21.348 47.578 23.3056 47.578Z" fill="black"/>
<path d="M31.4729 47.6432C33.5686 47.6432 34.8298 45.7362 34.8298 42.6955V42.6824C34.8298 39.6417 33.5686 37.7412 31.4729 37.7412C29.3773 37.7412 28.1291 39.6417 28.1291 42.6824V42.6955C28.1291 45.7362 29.3773 47.6432 31.4729 47.6432ZM31.4729 46.6143C30.113 46.6143 29.3182 45.1071 29.3182 42.6955V42.6824C29.3182 40.2708 30.113 38.7767 31.4729 38.7767C32.8327 38.7767 33.6408 40.2708 33.6408 42.6824V42.6955C33.6408 45.1071 32.8327 46.6143 31.4729 46.6143Z" fill="black"/>
<path d="M39.7321 47.6432C41.8277 47.6432 43.0891 45.7362 43.0891 42.6955V42.6824C43.0891 39.6417 41.8277 37.7412 39.7321 37.7412C37.6365 37.7412 36.3883 39.6417 36.3883 42.6824V42.6955C36.3883 45.7362 37.6365 47.6432 39.7321 47.6432ZM39.7321 46.6143C38.3723 46.6143 37.5773 45.1071 37.5773 42.6955V42.6824C37.5773 40.2708 38.3723 38.7767 39.7321 38.7767C41.092 38.7767 41.9 40.2708 41.9 42.6824V42.6955C41.9 45.1071 41.092 46.6143 39.7321 46.6143Z" fill="black"/>
<path d="M48.9848 38.9932C49.4184 38.9932 49.7731 38.6393 49.7731 38.2068C49.7731 37.7743 49.4184 37.4204 48.9848 37.4204C48.5512 37.4204 48.1965 37.7743 48.1965 38.2068C48.1965 38.6393 48.5512 38.9932 48.9848 38.9932ZM47.3819 49.8454C48.8665 49.8454 49.5563 49.2228 49.5563 47.768V40.3562H48.4133V47.7876C48.4133 48.5674 48.1242 48.8361 47.3556 48.8361H47.1848V49.8454H47.3819Z" fill="black"/>
<path d="M53.8739 47.5454C54.9119 47.5454 55.628 47.1194 55.9761 46.3658H56.0812V47.4208H57.2242V40.3564H56.0812V44.5375C56.0812 45.776 55.4177 46.5361 54.1695 46.5361C53.0396 46.5361 52.5797 45.9267 52.5797 44.6554V40.3564H51.4367V44.9306C51.4367 46.6017 52.2645 47.5454 53.8739 47.5454Z" fill="black"/>
<path d="M61.5748 47.5449C63.1842 47.5449 64.4127 46.6734 64.4127 45.4151V45.402C64.4127 44.3928 63.7689 43.8161 62.4354 43.495L61.3448 43.2328C60.5105 43.0297 60.1557 42.7283 60.1557 42.2499V42.2368C60.1557 41.6143 60.7733 41.1817 61.6141 41.1817C62.4682 41.1817 63.02 41.5684 63.1711 42.1253H64.2944C64.1368 40.972 63.1054 40.2314 61.6207 40.2314C60.1163 40.2314 58.9864 41.1162 58.9864 42.2892V42.2958C58.9864 43.3115 59.5842 43.8882 60.9112 44.2027L62.0083 44.4649C62.882 44.6746 63.2433 45.0088 63.2433 45.4872V45.5003C63.2433 46.1425 62.5667 46.5947 61.6141 46.5947C60.7076 46.5947 60.1426 46.208 59.9521 45.6183H58.7828C58.9142 46.7848 59.9981 47.5449 61.5748 47.5449Z" fill="black"/>
<path d="M68.4215 47.473C68.6448 47.473 68.8616 47.4468 69.0851 47.4076V46.4377C68.8748 46.4573 68.7632 46.4639 68.5595 46.4639C67.8237 46.4639 67.5346 46.1296 67.5346 45.2974V41.2999H69.0851V40.3562H67.5346V38.5278H66.3522V40.3562H65.2354V41.2999H66.3522V45.5857C66.3522 46.9357 66.9631 47.473 68.4215 47.473Z" fill="black"/>
<path d="M76.761 47.545C77.7465 47.545 78.5348 47.0798 78.9684 46.2933H79.0735V47.4205H80.2166V37.5513H79.0735V41.4701H78.9684C78.5808 40.7165 77.7333 40.2315 76.761 40.2315C74.9611 40.2315 73.7917 41.6667 73.7917 43.8817V43.8949C73.7917 46.0967 74.9676 47.545 76.761 47.545ZM77.0238 46.5358C75.7296 46.5358 74.9611 45.5398 74.9611 43.8949V43.8817C74.9611 42.2369 75.7296 41.2408 77.0238 41.2408C78.3115 41.2408 79.0998 42.25 79.0998 43.8817V43.8949C79.0998 45.5266 78.3115 46.5358 77.0238 46.5358Z" fill="black"/>
<path d="M85.0859 47.5449C86.7546 47.5449 87.7662 46.6013 88.0093 45.6444L88.0225 45.5921H86.8794L86.8531 45.651C86.6626 46.0769 86.0714 46.5291 85.1122 46.5291C83.8509 46.5291 83.0429 45.6773 83.0101 44.2159H88.1079V43.7702C88.1079 41.6601 86.9386 40.2314 85.0137 40.2314C83.0889 40.2314 81.8407 41.7257 81.8407 43.9078V43.9145C81.8407 46.1294 83.0626 47.5449 85.0859 47.5449ZM85.0071 41.2472C86.0517 41.2472 86.8268 41.9091 86.9451 43.305H83.0297C83.1546 41.9615 83.9561 41.2472 85.0071 41.2472Z" fill="black"/>
<path d="M89.6663 49.7795H90.8094V46.3063H90.9143C91.3018 47.06 92.1494 47.5449 93.1217 47.5449C94.9218 47.5449 96.0914 46.1098 96.0914 43.8948V43.8816C96.0914 41.6798 94.9155 40.2314 93.1217 40.2314C92.1368 40.2314 91.3484 40.6968 90.9143 41.4832H90.8094V40.356H89.6663V49.7795ZM92.8589 46.5357C91.5718 46.5357 90.7834 45.5265 90.7834 43.8948V43.8816C90.7834 42.2499 91.5718 41.2407 92.8589 41.2407C94.1532 41.2407 94.9218 42.2368 94.9218 43.8816V43.8948C94.9218 45.5397 94.1532 46.5357 92.8589 46.5357Z" fill="black"/>
<path d="M100.573 47.5449C102.59 47.5449 103.838 46.1556 103.838 43.8948V43.8816C103.838 41.6143 102.59 40.2314 100.573 40.2314C98.5562 40.2314 97.3077 41.6143 97.3077 43.8816V43.8948C97.3077 46.1556 98.5562 47.5449 100.573 47.5449ZM100.573 46.5357C99.2325 46.5357 98.4773 45.5592 98.4773 43.8948V43.8816C98.4773 42.2106 99.2325 41.2407 100.573 41.2407C101.913 41.2407 102.669 42.2106 102.669 43.8816V43.8948C102.669 45.5592 101.913 46.5357 100.573 46.5357Z" fill="black"/>
<path d="M107.827 47.5449C109.437 47.5449 110.665 46.6734 110.665 45.4151V45.402C110.665 44.3928 110.021 43.8161 108.688 43.495L107.597 43.2328C106.763 43.0297 106.408 42.7283 106.408 42.2499V42.2368C106.408 41.6143 107.026 41.1817 107.866 41.1817C108.72 41.1817 109.272 41.5684 109.424 42.1253H110.546C110.39 40.972 109.358 40.2314 107.873 40.2314C106.369 40.2314 105.238 41.1162 105.238 42.2892V42.2958C105.238 43.3115 105.837 43.8882 107.163 44.2027L108.261 44.4649C109.135 44.6746 109.495 45.0088 109.495 45.4872V45.5003C109.495 46.1425 108.819 46.5947 107.866 46.5947C106.96 46.5947 106.395 46.208 106.204 45.6183H105.035C105.167 46.7848 106.25 47.5449 107.827 47.5449Z" fill="black"/>
<path d="M112.828 38.9932C113.261 38.9932 113.616 38.6393 113.616 38.2068C113.616 37.7743 113.261 37.4204 112.828 37.4204C112.394 37.4204 112.04 37.7743 112.04 38.2068C112.04 38.6393 112.394 38.9932 112.828 38.9932ZM112.25 47.4206H113.392V40.3562H112.25V47.4206Z" fill="black"/>
<path d="M117.848 47.473C118.072 47.473 118.289 47.4468 118.512 47.4076V46.4377C118.301 46.4573 118.19 46.4639 117.987 46.4639C117.25 46.4639 116.961 46.1296 116.961 45.2974V41.2999H118.512V40.3562H116.961V38.5278H115.779V40.3562H114.662V41.2999H115.779V45.5857C115.779 46.9357 116.39 47.473 117.848 47.473Z" fill="black"/>
<path d="M122.79 47.5449C124.459 47.5449 125.471 46.6013 125.714 45.6444L125.726 45.5921H124.584L124.557 45.651C124.366 46.0769 123.775 46.5291 122.817 46.5291C121.555 46.5291 120.747 45.6773 120.714 44.2159H125.812V43.7702C125.812 41.6601 124.643 40.2314 122.718 40.2314C120.793 40.2314 119.545 41.7257 119.545 43.9078V43.9145C119.545 46.1294 120.767 47.5449 122.79 47.5449ZM122.712 41.2472C123.756 41.2472 124.531 41.9091 124.649 43.305H120.734C120.859 41.9615 121.66 41.2472 122.712 41.2472Z" fill="black"/>
<path d="M129.985 47.545C130.971 47.545 131.759 47.0798 132.192 46.2933H132.297V47.4205H133.441V37.5513H132.297V41.4701H132.192C131.805 40.7165 130.957 40.2315 129.985 40.2315C128.185 40.2315 127.016 41.6667 127.016 43.8817V43.8949C127.016 46.0967 128.192 47.545 129.985 47.545ZM130.248 46.5358C128.953 46.5358 128.185 45.5398 128.185 43.8949V43.8817C128.185 42.2369 128.953 41.2408 130.248 41.2408C131.536 41.2408 132.324 42.25 132.324 43.8817V43.8949C132.324 45.5266 131.536 46.5358 130.248 46.5358Z" fill="black"/>
<path d="M139.593 38.9932C140.026 38.9932 140.381 38.6393 140.381 38.2068C140.381 37.7743 140.026 37.4204 139.593 37.4204C139.159 37.4204 138.804 37.7743 138.804 38.2068C138.804 38.6393 139.159 38.9932 139.593 38.9932ZM139.014 47.4206H140.157V40.3562H139.014V47.4206Z" fill="black"/>
<path d="M142.097 47.4204H143.24V43.2395C143.24 42.0009 143.956 41.2407 145.086 41.2407C146.216 41.2407 146.741 41.8501 146.741 43.1214V47.4204H147.884V42.8462C147.884 41.1686 146.998 40.2314 145.408 40.2314C144.364 40.2314 143.7 40.6706 143.345 41.4176H143.24V40.356H142.097V47.4204Z" fill="black"/>
<path d="M153.912 49.898C155.166 49.898 155.751 49.4393 156.336 47.8534L159.101 40.3564H157.899L155.961 46.1692H155.856L153.912 40.3564H152.69L155.311 47.4274L155.18 47.8468C154.923 48.6594 154.529 48.9543 153.879 48.9543C153.721 48.9543 153.544 48.9478 153.406 48.9216V49.8586C153.563 49.8849 153.761 49.898 153.912 49.898Z" fill="black"/>
<path d="M163.045 47.5449C165.061 47.5449 166.31 46.1556 166.31 43.8948V43.8816C166.31 41.6143 165.061 40.2314 163.045 40.2314C161.028 40.2314 159.779 41.6143 159.779 43.8816V43.8948C159.779 46.1556 161.028 47.5449 163.045 47.5449ZM163.045 46.5357C161.704 46.5357 160.949 45.5592 160.949 43.8948V43.8816C160.949 42.2106 161.704 41.2407 163.045 41.2407C164.385 41.2407 165.14 42.2106 165.14 43.8816V43.8948C165.14 45.5592 164.385 46.5357 163.045 46.5357Z" fill="black"/>
<path d="M170.239 47.5454C171.277 47.5454 171.994 47.1194 172.342 46.3658H172.447V47.4208H173.59V40.3564H172.447V44.5375C172.447 45.776 171.783 46.5361 170.535 46.5361C169.405 46.5361 168.945 45.9267 168.945 44.6554V40.3564H167.802V44.9306C167.802 46.6017 168.63 47.5454 170.239 47.5454Z" fill="black"/>
<path d="M175.51 47.4204H176.652V43.0428C176.652 42.0074 177.428 41.3194 178.518 41.3194C178.768 41.3194 178.984 41.3456 179.221 41.3848V40.2773C179.11 40.2577 178.867 40.2314 178.65 40.2314C177.691 40.2314 177.027 40.664 176.758 41.4045H176.652V40.356H175.51V47.4204Z" fill="black"/>
<path d="M185.932 47.5449C186.885 47.5449 187.626 47.132 188.073 46.3785H188.178V47.4204H189.322V42.5841C189.322 41.1162 188.356 40.2314 186.628 40.2314C185.117 40.2314 184.04 40.9786 183.856 42.0861L183.849 42.1253H184.992L184.999 42.1057C185.183 41.5552 185.741 41.2407 186.589 41.2407C187.646 41.2407 188.178 41.7125 188.178 42.5841V43.2263L186.148 43.3509C184.5 43.4491 183.567 44.1765 183.567 45.4348V45.4478C183.567 46.7323 184.585 47.5449 185.932 47.5449ZM184.737 45.4216V45.4086C184.737 44.7074 185.209 44.3273 186.286 44.2617L188.178 44.1438V44.786C188.178 45.7952 187.331 46.5554 186.168 46.5554C185.347 46.5554 184.737 46.136 184.737 45.4216Z" fill="black"/>
<path d="M194.092 47.5449C195.794 47.5449 196.746 46.634 197.035 45.3561L197.049 45.284L195.919 45.2906L195.905 45.3299C195.642 46.1163 195.039 46.5357 194.086 46.5357C192.824 46.5357 192.01 45.4938 192.01 43.8686V43.8554C192.01 42.263 192.812 41.2407 194.086 41.2407C195.104 41.2407 195.735 41.8043 195.912 42.4989L195.919 42.5186H197.055L197.049 42.4793C196.838 41.221 195.807 40.2314 194.086 40.2314C192.102 40.2314 190.84 41.6601 190.84 43.8554V43.8686C190.84 46.1098 192.108 47.5449 194.092 47.5449Z" fill="black"/>
<path d="M201.406 47.5449C203.108 47.5449 204.06 46.634 204.349 45.3561L204.361 45.284L203.232 45.2906L203.219 45.3299C202.956 46.1163 202.351 46.5357 201.399 46.5357C200.138 46.5357 199.323 45.4938 199.323 43.8686V43.8554C199.323 42.263 200.124 41.2407 201.399 41.2407C202.417 41.2407 203.048 41.8043 203.225 42.4989L203.232 42.5186H204.369L204.361 42.4793C204.152 41.221 203.12 40.2314 201.399 40.2314C199.415 40.2314 198.154 41.6601 198.154 43.8554V43.8686C198.154 46.1098 199.422 47.5449 201.406 47.5449Z" fill="black"/>
<path d="M208.732 47.5449C210.749 47.5449 211.997 46.1556 211.997 43.8948V43.8816C211.997 41.6143 210.749 40.2314 208.732 40.2314C206.715 40.2314 205.467 41.6143 205.467 43.8816V43.8948C205.467 46.1556 206.715 47.5449 208.732 47.5449ZM208.732 46.5357C207.392 46.5357 206.636 45.5592 206.636 43.8948V43.8816C206.636 42.2106 207.392 41.2407 208.732 41.2407C210.072 41.2407 210.827 42.2106 210.827 43.8816V43.8948C210.827 45.5592 210.072 46.5357 208.732 46.5357Z" fill="black"/>
<path d="M215.927 47.5454C216.965 47.5454 217.681 47.1194 218.029 46.3658H218.134V47.4208H219.278V40.3564H218.134V44.5375C218.134 45.776 217.471 46.5361 216.223 46.5361C215.092 46.5361 214.633 45.9267 214.633 44.6554V40.3564H213.49V44.9306C213.49 46.6017 214.317 47.5454 215.927 47.5454Z" fill="black"/>
<path d="M221.197 47.4204H222.341V43.2395C222.341 42.0009 223.056 41.2407 224.186 41.2407C225.316 41.2407 225.841 41.8501 225.841 43.1214V47.4204H226.985V42.8462C226.985 41.1686 226.098 40.2314 224.508 40.2314C223.464 40.2314 222.8 40.6706 222.445 41.4176H222.341V40.356H221.197V47.4204Z" fill="black"/>
<path d="M231.355 47.473C231.578 47.473 231.795 47.4468 232.018 47.4076V46.4377C231.808 46.4573 231.696 46.4639 231.493 46.4639C230.757 46.4639 230.468 46.1296 230.468 45.2974V41.2999H232.018V40.3562H230.468V38.5278H229.286V40.3562H228.169V41.2999H229.286V45.5857C229.286 46.9357 229.896 47.473 231.355 47.473Z" fill="black"/>
<g style="mix-blend-mode:hard-light">
<path d="M285.464 21.6526H286.478V15.2972H286.568L291.026 21.6526H292.023V13.457H291.009V19.8352H290.918L286.46 13.457H285.464V21.6526Z" fill="black" fill-opacity="0.4"/>
</g>
<g style="mix-blend-mode:color-burn">
<path d="M285.464 21.6526H286.478V15.2972H286.568L291.026 21.6526H292.023V13.457H291.009V19.8352H290.918L286.46 13.457H285.464V21.6526Z" fill="#3F3F3F" fill-opacity="0.2"/>
</g>
<g style="mix-blend-mode:hard-light">
<path d="M296.443 21.7602C298.191 21.7602 299.273 20.5561 299.273 18.5968V18.5854C299.273 16.6203 298.191 15.4219 296.443 15.4219C294.695 15.4219 293.614 16.6203 293.614 18.5854V18.5968C293.614 20.5561 294.695 21.7602 296.443 21.7602ZM296.443 20.8856C295.282 20.8856 294.627 20.0393 294.627 18.5968V18.5854C294.627 17.1371 295.282 16.2966 296.443 16.2966C297.604 16.2966 298.259 17.1371 298.259 18.5854V18.5968C298.259 20.0393 297.604 20.8856 296.443 20.8856Z" fill="black" fill-opacity="0.4"/>
</g>
<g style="mix-blend-mode:color-burn">
<path d="M296.443 21.7602C298.191 21.7602 299.273 20.5561 299.273 18.5968V18.5854C299.273 16.6203 298.191 15.4219 296.443 15.4219C294.695 15.4219 293.614 16.6203 293.614 18.5854V18.5968C293.614 20.5561 294.695 21.7602 296.443 21.7602ZM296.443 20.8856C295.282 20.8856 294.627 20.0393 294.627 18.5968V18.5854C294.627 17.1371 295.282 16.2966 296.443 16.2966C297.604 16.2966 298.259 17.1371 298.259 18.5854V18.5968C298.259 20.0393 297.604 20.8856 296.443 20.8856Z" fill="#3F3F3F" fill-opacity="0.2"/>
</g>
<g style="mix-blend-mode:hard-light">
<path d="M301.694 21.6523H302.685L304.051 16.9156H304.143L305.515 21.6523H306.512L308.231 15.5298H307.245L306.039 20.4255H305.948L304.575 15.5298H303.636L302.264 20.4255H302.173L300.966 15.5298H299.975L301.694 21.6523Z" fill="black" fill-opacity="0.4"/>
</g>
<g style="mix-blend-mode:color-burn">
<path d="M301.694 21.6523H302.685L304.051 16.9156H304.143L305.515 21.6523H306.512L308.231 15.5298H307.245L306.039 20.4255H305.948L304.575 15.5298H303.636L302.264 20.4255H302.173L300.966 15.5298H299.975L301.694 21.6523Z" fill="#3F3F3F" fill-opacity="0.2"/>
</g>
<path d="M8.96936 14.5662C8.96936 12.663 8.96936 11.7115 9.32293 10.977C9.67597 10.2437 10.2689 9.65214 11.0041 9.29997C11.7404 8.94727 12.6942 8.94727 14.6021 8.94727H21.2753C23.1832 8.94727 24.1371 8.94727 24.8734 9.29997C25.6085 9.65214 26.2015 10.2437 26.5545 10.977C26.9081 11.7115 26.9081 12.663 26.9081 14.5662V21.2231C26.9081 23.1262 26.9081 24.0778 26.5545 24.8123C26.2015 25.5456 25.6085 26.1371 24.8734 26.4893C24.1371 26.842 23.1832 26.842 21.2753 26.842H14.6021C12.6942 26.842 11.7404 26.842 11.0041 26.4893C10.2689 26.1371 9.67597 25.5456 9.32293 24.8123C8.96936 24.0778 8.96936 23.1262 8.96936 21.2231V14.5662Z" fill="#1546A7"/>
<path fill-rule="evenodd" clip-rule="evenodd" d="M16.4074 12.5264C16.1987 12.5263 16.0271 12.6974 16.0268 12.9056V15.5628H23.0626L19.8586 12.5271L16.4074 12.5264ZM23.3203 16.3666V16.3663C23.3203 16.1588 23.1492 15.988 22.9412 15.988H20.2773V23.0084L23.3191 19.8104L23.3203 16.3666ZM19.4704 23.2632C19.6787 23.2627 19.8496 23.0917 19.8496 22.8838V20.2269H12.8143L16.0177 23.2626L19.4704 23.2632ZM12.5571 19.4234V19.4235C12.5571 19.6315 12.7287 19.8026 12.9372 19.8028H15.6002V12.7818L12.5576 15.979L12.5571 19.4234Z" fill="white"/>
<path d="M37.5422 21.6662C39.29 21.6662 40.5882 20.695 40.8614 19.1956V19.1843H39.8252L39.8138 19.1956C39.5576 20.1384 38.6865 20.7234 37.5422 20.7234C35.9593 20.7234 34.9687 19.4342 34.9687 17.3839V17.3725C34.9687 15.3222 35.9593 14.0273 37.5364 14.0273C38.6694 14.0273 39.5462 14.6918 39.8195 15.7425L39.8252 15.7538H40.8557L40.8614 15.7425C40.6166 14.1693 39.2672 13.0845 37.5364 13.0845C35.3046 13.0845 33.9154 14.7315 33.9154 17.3725V17.3839C33.9154 20.0191 35.3103 21.6662 37.5422 21.6662Z" fill="black"/>
<g style="mix-blend-mode:hard-light">
<path d="M37.5422 21.6662C39.29 21.6662 40.5882 20.695 40.8614 19.1956V19.1843H39.8252L39.8138 19.1956C39.5576 20.1384 38.6865 20.7234 37.5422 20.7234C35.9593 20.7234 34.9687 19.4342 34.9687 17.3839V17.3725C34.9687 15.3222 35.9593 14.0273 37.5364 14.0273C38.6694 14.0273 39.5462 14.6918 39.8195 15.7425L39.8252 15.7538H40.8557L40.8614 15.7425C40.6166 14.1693 39.2672 13.0845 37.5364 13.0845C35.3046 13.0845 33.9154 14.7315 33.9154 17.3725V17.3839C33.9154 20.0191 35.3103 21.6662 37.5422 21.6662Z" fill="black" fill-opacity="0.4"/>
</g>
<g style="mix-blend-mode:color-burn">
<path d="M37.5422 21.6662C39.29 21.6662 40.5882 20.695 40.8614 19.1956V19.1843H39.8252L39.8138 19.1956C39.5576 20.1384 38.6865 20.7234 37.5422 20.7234C35.9593 20.7234 34.9687 19.4342 34.9687 17.3839V17.3725C34.9687 15.3222 35.9593 14.0273 37.5364 14.0273C38.6694 14.0273 39.5462 14.6918 39.8195 15.7425L39.8252 15.7538H40.8557L40.8614 15.7425C40.6166 14.1693 39.2672 13.0845 37.5364 13.0845C35.3046 13.0845 33.9154 14.7315 33.9154 17.3725V17.3839C33.9154 20.0191 35.3103 21.6662 37.5422 21.6662Z" fill="#3F3F3F" fill-opacity="0.2"/>
</g>
<path d="M42.509 21.4734H43.5339V17.7419H48.0431V21.4734H49.0679V13.2778H48.0431V16.8219H43.5339V13.2778H42.509V21.4734Z" fill="black"/>
<g style="mix-blend-mode:hard-light">
<path d="M42.509 21.4734H43.5339V17.7419H48.0431V21.4734H49.0679V13.2778H48.0431V16.8219H43.5339V13.2778H42.509V21.4734Z" fill="black" fill-opacity="0.4"/>
</g>
<g style="mix-blend-mode:color-burn">
<path d="M42.509 21.4734H43.5339V17.7419H48.0431V21.4734H49.0679V13.2778H48.0431V16.8219H43.5339V13.2778H42.509V21.4734Z" fill="#3F3F3F" fill-opacity="0.2"/>
</g>
<path d="M50.4366 21.4734H51.5126L52.3382 19.1277H55.6062L56.4318 21.4734H57.5078L54.4789 13.2778H53.4654L50.4366 21.4734ZM53.9266 14.6011H54.0178L55.3044 18.2587H52.6399L53.9266 14.6011Z" fill="black"/>
<g style="mix-blend-mode:hard-light">
<path d="M50.4366 21.4734H51.5126L52.3382 19.1277H55.6062L56.4318 21.4734H57.5078L54.4789 13.2778H53.4654L50.4366 21.4734ZM53.9266 14.6011H54.0178L55.3044 18.2587H52.6399L53.9266 14.6011Z" fill="black" fill-opacity="0.4"/>
</g>
<g style="mix-blend-mode:color-burn">
<path d="M50.4366 21.4734H51.5126L52.3382 19.1277H55.6062L56.4318 21.4734H57.5078L54.4789 13.2778H53.4654L50.4366 21.4734ZM53.9266 14.6011H54.0178L55.3044 18.2587H52.6399L53.9266 14.6011Z" fill="#3F3F3F" fill-opacity="0.2"/>
</g>
<path d="M61.5696 21.6662C63.4028 21.6662 64.6042 20.712 64.6042 19.1786V19.1729C64.6042 17.9916 63.9266 17.3043 62.2129 16.9238L61.3019 16.7193C60.186 16.4752 59.7362 16.0322 59.7362 15.379V15.3733C59.7362 14.5157 60.5277 14.033 61.5524 14.0273C62.6228 14.0216 63.306 14.5555 63.4199 15.2768L63.4313 15.3506H64.4561L64.4504 15.2711C64.365 14.05 63.2206 13.0845 61.5809 13.0845C59.8843 13.0845 58.6943 14.0443 58.6887 15.4018V15.4074C58.6887 16.5944 59.4003 17.3498 61.0457 17.7133L61.9567 17.912C63.084 18.1619 63.5565 18.6276 63.5565 19.3092V19.3149C63.5565 20.1498 62.7424 20.7234 61.6265 20.7234C60.4422 20.7234 59.5882 20.2066 59.5142 19.3887L59.5085 19.3262H58.4836L58.4894 19.3887C58.6089 20.7234 59.7704 21.6662 61.5696 21.6662Z" fill="black"/>
<g style="mix-blend-mode:hard-light">
<path d="M61.5696 21.6662C63.4028 21.6662 64.6042 20.712 64.6042 19.1786V19.1729C64.6042 17.9916 63.9266 17.3043 62.2129 16.9238L61.3019 16.7193C60.186 16.4752 59.7362 16.0322 59.7362 15.379V15.3733C59.7362 14.5157 60.5277 14.033 61.5524 14.0273C62.6228 14.0216 63.306 14.5555 63.4199 15.2768L63.4313 15.3506H64.4561L64.4504 15.2711C64.365 14.05 63.2206 13.0845 61.5809 13.0845C59.8843 13.0845 58.6943 14.0443 58.6887 15.4018V15.4074C58.6887 16.5944 59.4003 17.3498 61.0457 17.7133L61.9567 17.912C63.084 18.1619 63.5565 18.6276 63.5565 19.3092V19.3149C63.5565 20.1498 62.7424 20.7234 61.6265 20.7234C60.4422 20.7234 59.5882 20.2066 59.5142 19.3887L59.5085 19.3262H58.4836L58.4894 19.3887C58.6089 20.7234 59.7704 21.6662 61.5696 21.6662Z" fill="black" fill-opacity="0.4"/>
</g>
<g style="mix-blend-mode:color-burn">
<path d="M61.5696 21.6662C63.4028 21.6662 64.6042 20.712 64.6042 19.1786V19.1729C64.6042 17.9916 63.9266 17.3043 62.2129 16.9238L61.3019 16.7193C60.186 16.4752 59.7362 16.0322 59.7362 15.379V15.3733C59.7362 14.5157 60.5277 14.033 61.5524 14.0273C62.6228 14.0216 63.306 14.5555 63.4199 15.2768L63.4313 15.3506H64.4561L64.4504 15.2711C64.365 14.05 63.2206 13.0845 61.5809 13.0845C59.8843 13.0845 58.6943 14.0443 58.6887 15.4018V15.4074C58.6887 16.5944 59.4003 17.3498 61.0457 17.7133L61.9567 17.912C63.084 18.1619 63.5565 18.6276 63.5565 19.3092V19.3149C63.5565 20.1498 62.7424 20.7234 61.6265 20.7234C60.4422 20.7234 59.5882 20.2066 59.5142 19.3887L59.5085 19.3262H58.4836L58.4894 19.3887C58.6089 20.7234 59.7704 21.6662 61.5696 21.6662Z" fill="#3F3F3F" fill-opacity="0.2"/>
</g>
<path d="M66.2404 21.4734H71.3304V20.5533H67.2653V17.7363H71.1197V16.8275H67.2653V14.198H71.3304V13.2778H66.2404V21.4734Z" fill="black"/>
<g style="mix-blend-mode:hard-light">
<path d="M66.2404 21.4734H71.3304V20.5533H67.2653V17.7363H71.1197V16.8275H67.2653V14.198H71.3304V13.2778H66.2404V21.4734Z" fill="black" fill-opacity="0.4"/>
</g>
<g style="mix-blend-mode:color-burn">
<path d="M66.2404 21.4734H71.3304V20.5533H67.2653V17.7363H71.1197V16.8275H67.2653V14.198H71.3304V13.2778H66.2404V21.4734Z" fill="#3F3F3F" fill-opacity="0.2"/>
</g>
</svg>
